# xmcd
#
# Track frame offsets: 
#        150
#        19433
#        35795
#        50903
#        68494
#        84802
#        100760
#        116735
#        133201
#        148557
#        167219
#        181292
#        197351
#        209734
#        224048
#
# Disc length: 3217 seconds
#
# Revision: 6
# Processed by: cddbd v1.5.2PL0 Copyright (c) Steve Scherf et al.
# Submitted via: ExactAudioCopy v0.99pb5
#
DISCID=e90c8f0f
DTITLE=Various Artist - Classic Country - TL 626-40 - 1997 - 2000 - CD 1
DYEAR=2004
DGENRE=Country
TTITLE0=Vince Gill - Feels like love
TTITLE1=Sara Evans - No place that far
TTITLE2=Montgomery Gentry - Lonely and gone
TTITLE3=Toby Keith - Me too
TTITLE4=Martina McBride - A broken wing
TTITLE5=Clint Black - The shoes you're wearing
TTITLE6=Andy Griggs - You won't ever be lonely
TTITLE7=Lee Ann Womack - I'll think of a reason later
TTITLE8=Chad Brock - The visit
TTITLE9=Mark Wills - Back at one
TTITLE10=Rick Trevino - Running out of reasons
TTITLE11=Ty Herndon - It must be love
TTITLE12=Mark Chesnutt - It's a little too late
TTITLE13=Clay Walker - Rumor has it
TTITLE14=LeAnn Rimes - On the side of angels
EXTD=
EXTT0=
EXTT1=
EXTT2=
EXTT3=
EXTT4=
EXTT5=
EXTT6=
EXTT7=
EXTT8=
EXTT9=
EXTT10=
EXTT11=
EXTT12=
EXTT13=
EXTT14=
PLAYORDER=
